# xmcd
#
# Track frame offsets:
#	150
#	9951
#	29097
#	44790
#	60183
#	73927
#	90330
#	108346
#	124398
#	139662
#	152840
#	164339
#	180167
#	199995
#	217192
#
# Disc length: 3106 seconds
#
# Revision: 1
# Processed by: cddbd v1.5.2PL0 Copyright (c) Steve Scherf et al.
# Submitted via: audiograbber 1.83.01
#
DISCID=d50c200f
DTITLE=Various Artist - CBCDG60148
DYEAR=1998
DGENRE=Country
TTITLE0=Garth Brooks - Mr. Right
TTITLE1=Garth Brooks - The Change
TTITLE2=Tracy Byrd - 4 To 1 In Atlanta
TTITLE3=Tracy Byrd - Why Don't That Telephone Ring
TTITLE4=Tracy Byrd - Lifestyles Of The Not So Rich And Famous
TTITLE5=Tracy Byrd - Walking To Jerusalem
TTITLE6=Tracy Byrd - Love Lessons
TTITLE7=Tracy Byrd - Heaven In My Woman's Eyes
TTITLE8=Tracy Byrd - Pink Flamingos
TTITLE9=Tracy Byrd - No Ordinary Man
TTITLE10=Tracy Byrd - The First Step
TTITLE11=John Anderson - Bend Until It Breaks
TTITLE12=John Anderson - Mississippi Man
TTITLE13=John Anderson - When It Comes To You
TTITLE14=Stacy Dean Campbell - Rosalee
EXTD=
EXTT0=
EXTT1=
EXTT2=
EXTT3=
EXTT4=
EXTT5=
EXTT6=
EXTT7=
EXTT8=
EXTT9=
EXTT10=
EXTT11=
EXTT12=
EXTT13=
EXTT14=
PLAYORDER=
